<svg width="128" height="76" viewBox="0 0 128 76" fill="none" xmlns="http://www.w3.org/2000/svg">
<g clip-path="url(#clip0_27311_4)">
<path d="M18.2303 0.257324C19.3939 0.257324 20.6869 0.257324 21.8505 0.643039L18.2303 7.71447C12.8 7.32875 8.01616 11.7002 7.62828 17.3573C7.3697 23.0145 11.5071 27.9002 17.0667 28.1573H18.2303C20.6869 28.1573 23.0141 27.2573 24.8242 25.7145L28.703 32.5288C25.7293 34.7145 22.1091 36.0002 18.101 36.0002C8.53333 36.2573 0.387879 28.9288 -2.29571e-07 18.9002C-0.258586 9.00018 6.98182 0.643039 16.6788 0.257324H18.2303Z" fill="#1D1D1B"/>
<path d="M22.1091 15.5571L17.5839 23.2714H26.3758L30.5132 30.7286L35.0384 23.2714L30.5132 15.5571H22.1091Z" fill="#1D1D1B"/>
<path d="M23.2727 12.7287C23.2727 11.443 23.5313 10.2858 24.1778 9.25725C24.8242 8.35725 25.9879 7.32868 26.8929 6.8144L27.5394 6.42868C28.703 5.78583 29.0909 5.52868 29.0909 4.88583C29.0909 4.24297 28.1858 3.60011 27.5394 3.60011C26.3757 3.60011 25.3414 4.24297 24.8242 5.52868L23.2727 4.1144C23.5313 3.47154 24.1778 2.82868 24.8242 2.18583C25.7293 1.54297 26.6343 1.54297 27.5394 1.54297C28.4444 1.54297 29.7374 1.92868 30.2545 2.44297C30.7717 3.08583 31.4182 3.98583 31.4182 4.88583C31.4182 6.42868 30.5131 7.7144 28.703 8.35725L27.798 9.00011C26.8929 9.64297 26.2464 9.90011 25.9879 10.9287H31.4182V13.1144C31.4182 12.9858 23.2727 12.7287 23.2727 12.7287Z" fill="#1D1D1B"/>
</g>
<g clip-path="url(#clip1_27311_4)">
<path fill-rule="evenodd" clip-rule="evenodd" d="M9.97423 56L7.5708 63.3134H0L6.24891 67.9788L3.84548 75.4183L9.97423 70.7528L16.2231 75.4183L13.8197 67.9788L19.9485 63.3134H12.3777L9.97423 56Z" fill="black"/>
<path fill-rule="evenodd" clip-rule="evenodd" d="M36.2936 56L33.8902 63.3134H26.1992L32.328 67.9788L30.0447 75.4183L36.2936 70.7528L42.4224 75.4183L40.0189 67.9788L46.2678 63.3134H38.5769L36.2936 56Z" fill="black"/>
<path fill-rule="evenodd" clip-rule="evenodd" d="M63.5719 56L61.1685 63.3134H53.5977L59.8466 67.9788L57.4431 75.4183L63.5719 70.7528L69.8208 75.4183L67.4174 67.9788L73.5461 63.3134H65.9753L63.5719 56Z" fill="black"/>
<path fill-rule="evenodd" clip-rule="evenodd" d="M90.9703 56L88.6871 63.3134H80.9961L87.1248 67.9788L84.7214 75.4183L90.9703 70.7528L97.0991 75.4183L94.8158 67.9788L101.065 63.3134H93.3738L90.9703 56Z" fill="black"/>
<path fill-rule="evenodd" clip-rule="evenodd" d="M117.166 56L114.762 63.3134H107.191L113.32 67.9788L111.037 75.4183L117.166 70.7528L123.415 75.4183L121.011 67.9788L127.14 63.3134H119.449L117.166 56Z" fill="black"/>
</g>
<defs>
<clipPath id="clip0_27311_4">
<rect width="128" height="36" fill="white"/>
</clipPath>
<clipPath id="clip1_27311_4">
<rect width="128" height="20" fill="white" transform="translate(0 56)"/>
</clipPath>
</defs>
</svg>
